<svg xmlns="http://www.w3.org/2000/svg" width="188.362" height="57.693" viewBox="0 0 188.362 57.693">
  <g id="Group_387" data-name="Group 387" transform="translate(-280 -799.871)">
    <path id="Path_226" data-name="Path 226" d="M534.72,814.694H412.4a32.9,32.9,0,0,1-.253,44.65v.146H534.72a7.678,7.678,0,0,0,7.678-7.678V822.372A7.678,7.678,0,0,0,534.72,814.694Z" transform="translate(-74.036 -8.304)" fill="#0083d1"/>
    <g id="Group_384" data-name="Group 384" transform="translate(353.427 811.422)">
      <path id="Path_227" data-name="Path 227" d="M446.973,837.441h1.106v-4.621a16.422,16.422,0,0,1,2.994-.243,5.9,5.9,0,0,1,4.052,1.164,5.727,5.727,0,0,1,1.725,4.551,6.331,6.331,0,0,1-1.725,4.83,6.538,6.538,0,0,1-4.54,1.407,24.622,24.622,0,0,1-2.506-.139v-5.021h-1.106Zm5.37,1.928h-1.887v3.11a4.5,4.5,0,0,0,.716.035c1.9,0,3.173-1.216,3.173-4.187,0-2.5-1.09-3.77-2.978-3.77a3.58,3.58,0,0,0-.911.087v2.8h1.887Z" transform="translate(-446.973 -829.744)" fill="#fff"/>
      <path id="Path_228" data-name="Path 228" d="M473.668,837.881l-.683,2.9h-2.408l3.059-11.709h3.043l3.01,11.709H477.2l-.716-2.9Zm-.586-9.52c-.033-1.424.456-2.154,1.2-2.154a1.9,1.9,0,0,1,.993.313,1.5,1.5,0,0,0,.683.33c.26,0,.358-.157.423-.712h1.058c.033,1.511-.423,2.1-1.237,2.1a1.891,1.891,0,0,1-.993-.3,1.523,1.523,0,0,0-.668-.3c-.195,0-.341.226-.374.712Zm3.076,7.609-.586-2.484c-.163-.695-.342-1.668-.488-2.38h-.049c-.146.712-.309,1.7-.456,2.38l-.586,2.484Z" transform="translate(-460.197 -826.137)" fill="#fff"/>
      <path id="Path_229" data-name="Path 229" d="M501.162,835h-2.653v-2.189h7.713V835h-2.685v9.52h-2.376Z" transform="translate(-475.846 -829.877)" fill="#fff"/>
      <path id="Path_230" data-name="Path 230" d="M521.271,832.813v4.569H524.8v-4.569h2.376v11.709H524.8v-4.9h-3.531v4.9H518.9V832.813Z" transform="translate(-487.267 -829.877)" fill="#fff"/>
      <path id="Path_231" data-name="Path 231" d="M550.764,835.1c0,4.013-1.969,6.167-4.833,6.167-3.01,0-4.654-2.675-4.654-5.976,0-3.423,1.839-6.081,4.817-6.081C549.251,829.208,550.764,832.022,550.764,835.1Zm-3.857-8.409,1.562,2.068h-1.692l-.748-1.025H546l-.765,1.025h-1.66l1.529-2.068Zm-3.124,8.565c0,2.4.846,3.944,2.262,3.944,1.448,0,2.213-1.7,2.213-4.013,0-2.084-.732-3.909-2.229-3.909C544.613,831.276,543.783,832.909,543.783,835.254Z" transform="translate(-499.806 -826.446)" fill="#fff"/>
      <path id="Path_232" data-name="Path 232" d="M566.361,844.522V832.813h2.6l2.1,4.378a35.929,35.929,0,0,1,1.611,3.839h.048c-.13-1.459-.211-3.162-.211-5.055v-3.162h2.147v11.709h-2.392l-2.148-4.5a36.314,36.314,0,0,1-1.676-3.944h-.049c.065,1.442.114,3.145.114,5.194v3.249Z" transform="translate(-513.859 -829.877)" fill="#fff"/>
      <path id="Path_233" data-name="Path 233" d="M597.535,843.9a10,10,0,0,1-3.238.591,5.257,5.257,0,0,1-4-1.442,6.183,6.183,0,0,1-1.514-4.413c.033-4.03,2.571-6.1,5.777-6.1a6.218,6.218,0,0,1,2.668.5l-.472,2.067a4.792,4.792,0,0,0-2.148-.434c-1.887,0-3.336,1.2-3.336,3.909,0,2.536,1.3,3.839,3.026,3.839a2.467,2.467,0,0,0,.977-.139v-2.571h-1.481v-2h3.742Z" transform="translate(-526.42 -829.722)" fill="#fff"/>
      <path id="Path_234" data-name="Path 234" d="M619.858,832.859a16.353,16.353,0,0,1,2.978-.244,5.088,5.088,0,0,1,3.091.712,2.583,2.583,0,0,1,1.172,2.259,2.642,2.642,0,0,1-1.757,2.5v.052a2.837,2.837,0,0,1,2.116,2.849,3.188,3.188,0,0,1-1.041,2.45c-.765.695-2.018,1.094-4.085,1.094a16.2,16.2,0,0,1-2.473-.157Zm2.36,4.534h.7c1.156,0,1.807-.608,1.807-1.511,0-.887-.553-1.407-1.595-1.407a4.762,4.762,0,0,0-.911.069Zm0,5.194a3.467,3.467,0,0,0,.8.052c1.058,0,1.953-.5,1.953-1.72,0-1.181-.912-1.7-2.018-1.7h-.732Z" transform="translate(-543.831 -829.766)" fill="#fff"/>
      <path id="Path_235" data-name="Path 235" d="M642.039,838.168l-.684,2.9h-2.409l3.059-11.709h3.026l3.027,11.709h-2.49l-.732-2.9Zm2.489-1.911-.586-2.484c-.163-.695-.342-1.668-.489-2.38h-.049c-.146.712-.309,1.7-.456,2.38l-.586,2.484Zm1.741-9.607-2,2.085h-1.839l1.367-2.085Z" transform="translate(-554.525 -826.424)" fill="#fff"/>
      <path id="Path_236" data-name="Path 236" d="M670.337,838.308c0,4.013-1.969,6.167-4.833,6.167-3.011,0-4.654-2.676-4.654-5.976,0-3.423,1.839-6.081,4.817-6.081C668.823,832.418,670.337,835.232,670.337,838.308Zm-6.981.156c0,2.4.846,3.944,2.261,3.944,1.449,0,2.214-1.7,2.214-4.013,0-2.084-.733-3.909-2.23-3.909C664.186,834.485,663.356,836.119,663.356,838.464Z" transform="translate(-566.796 -829.656)" fill="#fff"/>
    </g>
    <g id="Group_385" data-name="Group 385" transform="translate(354.408 833.752)">
      <path id="Path_237" data-name="Path 237" d="M449.2,882.053a9.75,9.75,0,0,1,2.071-.213,3.472,3.472,0,0,1,2.484.732,2.313,2.313,0,0,1,.757,1.814,2.393,2.393,0,0,1-1.585,2.256v.045a2.542,2.542,0,0,1,1.927,2.577,2.807,2.807,0,0,1-.785,2.043,4.042,4.042,0,0,1-3.084.961,14.5,14.5,0,0,1-1.785-.107Zm1.2,4.223h.942a1.781,1.781,0,0,0,1.956-1.769c0-1.113-.714-1.677-1.942-1.677a3.955,3.955,0,0,0-.956.091Zm0,4.924a4.65,4.65,0,0,0,.9.061c1.242,0,2.3-.564,2.3-2.012,0-1.4-1.071-2.013-2.327-2.013H450.4Z" transform="translate(-449.204 -879.675)" fill="#fff"/>
      <path id="Path_238" data-name="Path 238" d="M472.186,884.243c0,3.613-1.771,5.382-3.956,5.382-2.27,0-3.827-2.028-3.827-5.23,0-3.293,1.657-5.351,3.97-5.351S472.186,881.118,472.186,884.243Zm-6.526.137c0,2.165.9,4.177,2.642,4.177s2.627-2.028,2.627-4.269c0-2-.8-4.177-2.627-4.177S465.661,882.185,465.661,884.38Zm3.1-7.394,1.428,1.662h-1.028l-.857-.991h-.029l-.857.991h-1l1.4-1.662Zm-1.142,14.437a.722.722,0,0,1,.7-.732.7.7,0,0,1,.671.732.715.715,0,0,1-.685.748A.724.724,0,0,1,467.617,891.423Z" transform="translate(-457.72 -876.955)" fill="#fff"/>
      <path id="Path_239" data-name="Path 239" d="M497.258,891.824a4.781,4.781,0,0,1-2.185.427c-2.47,0-4.3-1.768-4.3-5.168,0-3.476,2-5.381,4.541-5.381a4.087,4.087,0,0,1,1.956.4l-.286,1.052a3.418,3.418,0,0,0-1.642-.366c-1.885,0-3.3,1.4-3.3,4.223,0,2.713,1.271,4.146,3.255,4.146a4.039,4.039,0,0,0,1.728-.366Z" transform="translate(-472.494 -879.597)" fill="#fff"/>
      <path id="Path_240" data-name="Path 240" d="M514.731,884.2c0,3.613-1.77,5.382-3.956,5.382-2.27,0-3.827-2.028-3.827-5.23,0-3.293,1.657-5.351,3.97-5.351S514.731,881.078,514.731,884.2Zm-6.526.137c0,2.165.9,4.177,2.642,4.177s2.628-2.028,2.628-4.269c0-2-.8-4.177-2.628-4.177S508.206,882.146,508.206,884.341Zm3.1-7.425,1.428,1.662H511.7l-.857-.991h-.029l-.857.991h-1l1.4-1.662Z" transform="translate(-481.555 -876.916)" fill="#fff"/>
      <path id="Path_241" data-name="Path 241" d="M528.125,892.288V882.013H529.4l2.684,5.077a34.368,34.368,0,0,1,1.571,3.415h.029c-.1-1.448-.128-2.729-.128-4.375v-4.116h1.113v10.275h-1.185l-2.7-5.123a32.656,32.656,0,0,1-1.6-3.46l-.043.015c.086,1.326.1,2.576.1,4.421v4.147Z" transform="translate(-493.419 -879.772)" fill="#fff"/>
      <path id="Path_242" data-name="Path 242" d="M553.51,891.756a7.162,7.162,0,0,1-2.584.5,4.143,4.143,0,0,1-3.2-1.25,5.693,5.693,0,0,1-1.285-3.9c.015-3.354,1.956-5.336,4.727-5.336a4.909,4.909,0,0,1,2.1.412l-.286,1.067a4.016,4.016,0,0,0-1.828-.381c-2,0-3.455,1.4-3.455,4.162,0,2.775,1.356,4.162,3.284,4.162a3.083,3.083,0,0,0,1.357-.229v-3.156h-1.728v-1.036h2.9Z" transform="translate(-503.681 -879.635)" fill="#fff"/>
      <path id="Path_243" data-name="Path 243" d="M572.054,883.111H569.47v-1.1h6.368v1.1h-2.584v9.178h-1.2Z" transform="translate(-516.582 -879.772)" fill="#fff"/>
      <path id="Path_244" data-name="Path 244" d="M587.59,882.013v4.329h4.07v-4.329h1.2v10.275h-1.2v-4.818h-4.07v4.818h-1.2V882.013Z" transform="translate(-526.062 -879.772)" fill="#fff"/>
      <path id="Path_245" data-name="Path 245" d="M613.329,878.441a2.8,2.8,0,0,1,.229,1.1,1.155,1.155,0,0,1-1.2,1.25l-.2.015v5.413c0,3.018-1.4,4.223-3.285,4.223-1.813,0-3.127-1.128-3.127-4.132v-6.3h1.2v6.327c0,2.164.843,3.034,1.97,3.034,1.242,0,2.042-.9,2.042-3.034v-6.327H612c.457,0,.628-.168.628-.549a1.809,1.809,0,0,0-.228-.854Z" transform="translate(-536.906 -877.77)" fill="#fff"/>
      <path id="Path_246" data-name="Path 246" d="M632.48,879.447a3.009,3.009,0,0,1,.243,1.174,1.162,1.162,0,0,1-1.342,1.311,6.3,6.3,0,0,1,.985,3.69c0,3.613-1.771,5.382-3.955,5.382-2.271,0-3.827-2.028-3.827-5.23,0-3.293,1.657-5.351,3.969-5.351a3.728,3.728,0,0,1,1.343.259,4.539,4.539,0,0,0,1.328.488c.4,0,.557-.2.557-.609a2.112,2.112,0,0,0-.228-.931Zm-1.371,6.22c0-2-.8-4.177-2.613-4.177s-2.656,2.119-2.656,4.254c0,2.119.885,4.192,2.642,4.192S631.109,887.908,631.109,885.667Z" transform="translate(-547.46 -878.334)" fill="#fff"/>
      <path id="Path_247" data-name="Path 247" d="M645.759,892.288V882.013h1.27l2.685,5.077a34.347,34.347,0,0,1,1.57,3.415h.029c-.1-1.448-.128-2.729-.128-4.375v-4.116H652.3v10.275h-1.185l-2.7-5.123a32.644,32.644,0,0,1-1.6-3.46l-.043.015c.086,1.326.1,2.576.1,4.421v4.147Z" transform="translate(-559.323 -879.772)" fill="#fff"/>
      <path id="Path_248" data-name="Path 248" d="M671.144,891.756a7.157,7.157,0,0,1-2.584.5,4.142,4.142,0,0,1-3.2-1.25,5.693,5.693,0,0,1-1.285-3.9c.014-3.354,1.956-5.336,4.727-5.336a4.907,4.907,0,0,1,2.1.412l-.286,1.067a4.016,4.016,0,0,0-1.828-.381c-2,0-3.455,1.4-3.455,4.162,0,2.775,1.356,4.162,3.284,4.162a3.081,3.081,0,0,0,1.357-.229v-3.156h-1.727v-1.036h2.9Z" transform="translate(-569.585 -879.635)" fill="#fff"/>
    </g>
    <rect id="Rectangle_177" data-name="Rectangle 177" width="101.637" height="0.61" transform="translate(354.886 830.313)" fill="#fff"/>
    <path id="Path_249" data-name="Path 249" d="M308.279,853.913a3.194,3.194,0,0,1-4.293,0L285.7,835.625a2.87,2.87,0,0,1,0-4.059l3.312-3.311a2.869,2.869,0,0,1,4.059,0l13.065,13.066,26.1-26.1c.467-.467,1.02-.994,1.339-1.359-4.971-8.687-14-13.992-24.723-13.992a28.882,28.882,0,1,0,28.571,24.9Z" fill="#0083d1"/>
    <g id="Group_386" data-name="Group 386" transform="translate(287.836 806.652)">
      <path id="Path_250" data-name="Path 250" d="M300.509,846.254a1.876,1.876,0,0,1,1.237,2.541,1.834,1.834,0,0,1-2.552.947,1.9,1.9,0,0,1-1.232-2.52A1.832,1.832,0,0,1,300.509,846.254Zm-1.042,2.773c.749.3,1.5.159,1.753-.486s-.2-1.257-.967-1.565c-.695-.277-1.488-.194-1.757.479S298.706,848.724,299.466,849.027Z" transform="translate(-297.819 -832.537)" fill="#fff"/>
      <path id="Path_251" data-name="Path 251" d="M304.5,841.216l-3.319-2.175.452-.69,1.985.076a10.989,10.989,0,0,1,1.485.163l.006-.01c-.469-.252-.907-.517-1.415-.85l-1.157-.758.368-.562,3.32,2.175-.41.626-2.026-.088a13.794,13.794,0,0,1-1.538-.156l0,.018c.445.256.887.538,1.433.9l1.187.778Z" transform="translate(-299.704 -827.122)" fill="#fff"/>
      <path id="Path_252" data-name="Path 252" d="M307.075,833.383l.493-.531,2.464,2.287,1.109-1.2.445.412-1.6,1.726Z" transform="translate(-303.005 -825.129)" fill="#fff"/>
      <path id="Path_253" data-name="Path 253" d="M312.791,827.753l2.6,3-.548.474-2.6-3Z" transform="translate(-305.9 -822.272)" fill="#fff"/>
      <path id="Path_254" data-name="Path 254" d="M317.8,827.045l-2.166-3.329.691-.45,1.788.868a10.944,10.944,0,0,1,1.294.746l.01-.007c-.328-.419-.623-.839-.954-1.347l-.755-1.161.563-.366,2.166,3.328-.627.408-1.821-.9a13.871,13.871,0,0,1-1.347-.762l-.012.014c.3.413.6.85.953,1.4l.774,1.19Z" transform="translate(-307.799 -819.049)" fill="#fff"/>
      <path id="Path_255" data-name="Path 255" d="M327.3,820.637l-1.376.588.459,1.073,1.538-.657.234.547-2.2.942-1.56-3.65,2.123-.908.234.547-1.456.623.4.942,1.375-.588Z" transform="translate(-312.706 -817.128)" fill="#fff"/>
      <path id="Path_256" data-name="Path 256" d="M333.5,824.97a.441.441,0,0,1,.292-.575.465.465,0,0,1,.271.889A.441.441,0,0,1,333.5,824.97Z" transform="translate(-317.798 -820.378)" fill="#fff"/>
      <path id="Path_257" data-name="Path 257" d="M339.208,819.385a3.934,3.934,0,0,1-1.225.429,2.137,2.137,0,0,1-1.621-.27,1.968,1.968,0,0,1-.784-1.351,2.017,2.017,0,0,1,1.843-2.394,2.631,2.631,0,0,1,1.071.015l-.062.6a2.141,2.141,0,0,0-.917-.022,1.329,1.329,0,0,0-1.192,1.641,1.312,1.312,0,0,0,1.594,1.193,1.389,1.389,0,0,0,.527-.17l-.161-.976-.692.114-.093-.564,1.383-.228Z" transform="translate(-318.955 -815.55)" fill="#fff"/>
      <path id="Path_258" data-name="Path 258" d="M348.605,817.359a1.876,1.876,0,0,1-1.97,2.027,1.834,1.834,0,0,1-1.758-2.079,1.9,1.9,0,0,1,1.952-2.015A1.832,1.832,0,0,1,348.605,817.359Zm-2.962-.039c-.027.807.358,1.462,1.052,1.484s1.116-.611,1.143-1.441c.025-.747-.323-1.466-1.047-1.49S345.67,816.5,345.644,817.32Z" transform="translate(-324.183 -815.29)" fill="#fff"/>
      <path id="Path_259" data-name="Path 259" d="M355.7,819.985l-.384-4.152.77.173.135,1.876c.04.522.064,1,.062,1.5l.011,0c.206-.436.45-.876.711-1.312l.96-1.643.752.168-2.207,3.571Z" transform="translate(-330.031 -815.594)" fill="#fff"/>
      <path id="Path_260" data-name="Path 260" d="M360.922,825.148a.441.441,0,0,1,.572-.3.434.434,0,0,1,.277.583.448.448,0,1,1-.849-.284Z" transform="translate(-333.157 -820.632)" fill="#fff"/>
      <path id="Path_261" data-name="Path 261" d="M365.573,823.024l.557-4.131.712.341-.29,1.858c-.078.517-.162.992-.275,1.473l.011.005c.3-.379.635-.753.987-1.12l1.3-1.386.7.333-2.951,2.985Z" transform="translate(-335.778 -817.308)" fill="#fff"/>
      <path id="Path_262" data-name="Path 262" d="M370.565,826.7l2.343-3.2.665.486-.178,1.978a10.876,10.876,0,0,1-.239,1.474l.01.007c.275-.455.563-.879.921-1.369l.817-1.117.541.4-2.343,3.2-.6-.442.193-2.018a13.811,13.811,0,0,1,.235-1.528l-.018-.005c-.278.43-.583.857-.969,1.384L371.1,827.1Z" transform="translate(-338.575 -819.891)" fill="#fff"/>
    </g>
  </g>
</svg>
