<svg xmlns="http://www.w3.org/2000/svg" width="17.094" height="16.718" viewBox="0 0 17.094 16.718">
  <g id="ic-cao-su" transform="translate(-292.015 -913.04)">
    <g id="Group_629" data-name="Group 629" transform="translate(292.015 913.04)">
      <g id="Group_624" data-name="Group 624" transform="translate(0)">
        <g id="Group_623" data-name="Group 623">
          <path id="Path_299" data-name="Path 299" d="M304.482,914.705a2.3,2.3,0,0,1-1.586-1.589.116.116,0,0,0-.218,0,2.3,2.3,0,0,1-1.586,1.589.112.112,0,0,0,0,.213,2.309,2.309,0,0,1,1.582,1.592.122.122,0,0,0,.225,0,2.309,2.309,0,0,1,1.582-1.592.112.112,0,0,0,0-.213Z" transform="translate(-294.017 -913.04)" fill="#20315c"/>
          <path id="Path_309" data-name="Path 309" d="M304.482,914.705a2.3,2.3,0,0,1-1.586-1.589.116.116,0,0,0-.218,0,2.3,2.3,0,0,1-1.586,1.589.112.112,0,0,0,0,.213,2.309,2.309,0,0,1,1.582,1.592.122.122,0,0,0,.225,0,2.309,2.309,0,0,1,1.582-1.592.112.112,0,0,0,0-.213Z" transform="translate(-301.015 -913.04)" fill="#20315c"/>
        </g>
      </g>
      <g id="Group_626" data-name="Group 626" transform="translate(13.548)">
        <g id="Group_625" data-name="Group 625">
          <path id="Path_300" data-name="Path 300" d="M444.876,914.705a2.3,2.3,0,0,1-1.586-1.589.116.116,0,0,0-.218,0,2.3,2.3,0,0,1-1.586,1.589.112.112,0,0,0,0,.213,2.31,2.31,0,0,1,1.582,1.592.122.122,0,0,0,.225,0,2.309,2.309,0,0,1,1.582-1.592.112.112,0,0,0,0-.213Z" transform="translate(-441.409 -913.04)" fill="#20315c"/>
        </g>
      </g>
    </g>
    <g id="Group_636" data-name="Group 636" transform="translate(292.015 926.212)">
      <g id="Group_631" data-name="Group 631" transform="translate(0 0)">
        <g id="Group_630" data-name="Group 630">
          <path id="Path_302" data-name="Path 302" d="M304.482,1121.205a2.3,2.3,0,0,1-1.586-1.589.116.116,0,0,0-.218,0,2.3,2.3,0,0,1-1.586,1.589.112.112,0,0,0,0,.213,2.31,2.31,0,0,1,1.582,1.592.122.122,0,0,0,.225,0,2.31,2.31,0,0,1,1.582-1.592.112.112,0,0,0,0-.213Z" transform="translate(-294.017 -1119.54)" fill="#20315c"/>
          <path id="Path_311" data-name="Path 311" d="M304.482,1121.205a2.3,2.3,0,0,1-1.586-1.589.116.116,0,0,0-.218,0,2.3,2.3,0,0,1-1.586,1.589.112.112,0,0,0,0,.213,2.31,2.31,0,0,1,1.582,1.592.122.122,0,0,0,.225,0,2.31,2.31,0,0,1,1.582-1.592.112.112,0,0,0,0-.213Z" transform="translate(-301.015 -1119.54)" fill="#20315c"/>
        </g>
      </g>
      <g id="Group_633" data-name="Group 633" transform="translate(13.548 0)">
        <g id="Group_632" data-name="Group 632">
          <path id="Path_303" data-name="Path 303" d="M444.876,1121.205a2.3,2.3,0,0,1-1.586-1.589.116.116,0,0,0-.218,0,2.3,2.3,0,0,1-1.586,1.589.112.112,0,0,0,0,.213,2.31,2.31,0,0,1,1.582,1.592.122.122,0,0,0,.225,0,2.31,2.31,0,0,1,1.582-1.592.112.112,0,0,0,0-.213Z" transform="translate(-441.409 -1119.54)" fill="#20315c"/>
        </g>
      </g>
    </g>
    <g id="Group_643" data-name="Group 643" transform="translate(292.015 919.555)">
      <g id="Group_638" data-name="Group 638" transform="translate(0)">
        <g id="Group_637" data-name="Group 637">
          <path id="Path_305" data-name="Path 305" d="M304.482,1017.955a2.3,2.3,0,0,1-1.586-1.589.116.116,0,0,0-.218,0,2.3,2.3,0,0,1-1.586,1.589.112.112,0,0,0,0,.213,2.31,2.31,0,0,1,1.582,1.592.122.122,0,0,0,.225,0,2.309,2.309,0,0,1,1.582-1.592.112.112,0,0,0,0-.213Z" transform="translate(-294.017 -1016.29)" fill="#20315c"/>
          <path id="Path_310" data-name="Path 310" d="M304.482,1017.955a2.3,2.3,0,0,1-1.586-1.589.116.116,0,0,0-.218,0,2.3,2.3,0,0,1-1.586,1.589.112.112,0,0,0,0,.213,2.31,2.31,0,0,1,1.582,1.592.122.122,0,0,0,.225,0,2.309,2.309,0,0,1,1.582-1.592.112.112,0,0,0,0-.213Z" transform="translate(-301.015 -1016.29)" fill="#20315c"/>
        </g>
      </g>
      <g id="Group_640" data-name="Group 640" transform="translate(13.548)">
        <g id="Group_639" data-name="Group 639">
          <path id="Path_306" data-name="Path 306" d="M444.876,1017.955a2.3,2.3,0,0,1-1.586-1.589.116.116,0,0,0-.218,0,2.3,2.3,0,0,1-1.586,1.589.112.112,0,0,0,0,.213,2.31,2.31,0,0,1,1.582,1.592.122.122,0,0,0,.225,0,2.31,2.31,0,0,1,1.582-1.592.112.112,0,0,0,0-.213Z" transform="translate(-441.409 -1016.29)" fill="#20315c"/>
        </g>
      </g>
    </g>
  </g>
</svg>
