<svg id="Group_452" data-name="Group 452" xmlns="http://www.w3.org/2000/svg" width="20.972" height="16.098" viewBox="0 0 20.972 16.098">
  <path id="Path_255" data-name="Path 255" d="M420.5,458.657a5.738,5.738,0,0,0,3.262-1.314c1.462-1.131,3.567-3.318,7.421,0a4.2,4.2,0,0,0,3.406,1.32s1.051.163,3.406-1.533c.743-.535,2.187-1.464,3.477-1.176V457.7a6.5,6.5,0,0,0-2.689.976c-1.362.87-3.455,3.048-6.847,1.119-.573-.326-1.577-.994-2.223-1.42a4,4,0,0,0-4.589.106c-2.223,1.42-3.083,2.088-4.625,2.021Z" transform="translate(-420.5 -455.584)" fill="#20315c"/>
  <path id="Path_256" data-name="Path 256" d="M420.5,509.157a5.738,5.738,0,0,0,3.262-1.314c1.462-1.131,3.567-3.318,7.421,0a4.2,4.2,0,0,0,3.406,1.32s1.051.163,3.406-1.533c.743-.535,2.187-1.464,3.477-1.176V508.2a6.5,6.5,0,0,0-2.689.976c-1.362.87-3.455,3.048-6.847,1.118-.573-.326-1.577-.994-2.223-1.42a4,4,0,0,0-4.589.107c-2.223,1.42-3.083,2.088-4.625,2.021Z" transform="translate(-420.5 -502.379)" fill="#20315c"/>
  <path id="Path_257" data-name="Path 257" d="M420.5,558.657a5.738,5.738,0,0,0,3.262-1.314c1.462-1.131,3.567-3.317,7.421,0a4.2,4.2,0,0,0,3.406,1.32s1.051.163,3.406-1.533c.743-.535,2.187-1.464,3.477-1.176V557.7a6.5,6.5,0,0,0-2.689.976c-1.362.87-3.455,3.048-6.847,1.119-.573-.326-1.577-.994-2.223-1.42a4,4,0,0,0-4.589.107c-2.223,1.42-3.083,2.088-4.625,2.02Z" transform="translate(-420.5 -548.248)" fill="#20315c"/>
  <path id="Path_258" data-name="Path 258" d="M420.5,610.157a5.739,5.739,0,0,0,3.262-1.314c1.462-1.131,3.567-3.318,7.421,0a4.2,4.2,0,0,0,3.406,1.32s1.051.162,3.406-1.533c.743-.535,2.187-1.464,3.477-1.176V609.2a6.5,6.5,0,0,0-2.689.976c-1.362.87-3.455,3.048-6.847,1.118-.573-.326-1.577-.994-2.223-1.42a4,4,0,0,0-4.589.107c-2.223,1.42-3.083,2.088-4.625,2.02Z" transform="translate(-420.5 -595.97)" fill="#20315c"/>
</svg>
