<svg xmlns="http://www.w3.org/2000/svg" width="19.49" height="16.439" viewBox="0 0 19.49 16.439">
  <g id="ic-lo-xo" transform="translate(-248.756 299.774) rotate(-90)">
    <path id="Path_312" data-name="Path 312" d="M299.674,256.669c-.486.062-.965-.284-1.742-1.151a.953.953,0,0,1-.082-1.385,6.328,6.328,0,0,0,1.291-3.535,1.556,1.556,0,0,0-1.524-1.66,1.77,1.77,0,0,0-2.143,1.877,6.082,6.082,0,0,0,.7,3.111,1.155,1.155,0,0,1-.269,1.588c-1.49,1.469-2,1.721-3.568-.276-.256-.325-.18-.547-.01-.894a20.353,20.353,0,0,0,1.355-3.153,1.628,1.628,0,0,0-1.446-2.254,1.776,1.776,0,0,0-2.149,1.869,7.287,7.287,0,0,0,.666,3.125c.382.916.4.925-.289,1.617-1.457,1.459-1.924,1.655-3.488-.261a.672.672,0,0,1-.031-.942,7.79,7.79,0,0,0,1.4-3.327,1.681,1.681,0,0,0-.717-1.827,1.864,1.864,0,0,0-2.917,1.5,7.552,7.552,0,0,0,.816,3.627c.086.2.117.558,0,.675a13,13,0,0,1-1.769,1.573c-.329.23-.428.4-.264.893a12.683,12.683,0,0,0,1.439-.806,13.881,13.881,0,0,0,1.237-1.144c.34.367.634.719.963,1.035a2.051,2.051,0,0,0,3.126.169c.464-.366.874-.8,1.317-1.213.244.283.465.565.712.823,1.264,1.314,2.314,1.358,3.666.145.346-.311.657-.661.988-1,.3.343.531.643.8.91a2.537,2.537,0,0,0,1.936.956ZM285.54,250.42a.936.936,0,0,1,1.166-.825.874.874,0,0,1,.863,1.005,6.655,6.655,0,0,1-1.317,3.414A5.924,5.924,0,0,1,285.54,250.42Zm5.378.057a.962.962,0,0,1,1.187-.881c.575.059.861.414.864,1.075a6.71,6.71,0,0,1-1.339,3.313A5.941,5.941,0,0,1,290.918,250.477Zm5.393,0a.95.95,0,0,1,1.182-.886c.606.06.863.4.856,1.13a6.613,6.613,0,0,1-1.326,3.258A5.886,5.886,0,0,1,296.311,250.48Z" fill="#20315c" stroke="#20315c" stroke-width="0.2"/>
    <path id="Path_313" data-name="Path 313" d="M299.674,311.375c-.486.062-.965-.284-1.742-1.151a.953.953,0,0,1-.082-1.385,6.328,6.328,0,0,0,1.291-3.535,1.556,1.556,0,0,0-1.524-1.66,1.769,1.769,0,0,0-2.143,1.877,6.083,6.083,0,0,0,.7,3.111,1.155,1.155,0,0,1-.269,1.588c-1.49,1.469-2,1.721-3.568-.276-.256-.325-.18-.547-.01-.894a20.353,20.353,0,0,0,1.355-3.153,1.628,1.628,0,0,0-1.446-2.254,1.776,1.776,0,0,0-2.149,1.869,7.288,7.288,0,0,0,.666,3.125c.382.916.4.925-.289,1.617-1.457,1.459-1.924,1.655-3.488-.261a.672.672,0,0,1-.031-.942,7.791,7.791,0,0,0,1.4-3.327,1.681,1.681,0,0,0-.717-1.827,1.864,1.864,0,0,0-2.917,1.5,7.552,7.552,0,0,0,.816,3.627c.086.2.117.558,0,.675a13,13,0,0,1-1.769,1.573c-.329.23-.428.4-.264.893a12.711,12.711,0,0,0,1.439-.806,13.859,13.859,0,0,0,1.237-1.144c.34.367.634.72.963,1.035a2.051,2.051,0,0,0,3.126.169c.464-.366.874-.8,1.317-1.213.244.283.465.565.712.822,1.264,1.314,2.314,1.358,3.666.145.346-.311.657-.661.988-1,.3.343.531.643.8.91a2.538,2.538,0,0,0,1.936.956Zm-14.134-6.249a.936.936,0,0,1,1.166-.825.874.874,0,0,1,.863,1.005,6.655,6.655,0,0,1-1.317,3.414A5.924,5.924,0,0,1,285.54,305.127Zm5.378.057a.962.962,0,0,1,1.187-.881c.575.059.861.414.864,1.075a6.71,6.71,0,0,1-1.339,3.313A5.941,5.941,0,0,1,290.918,305.184Zm5.393,0a.95.95,0,0,1,1.182-.886c.606.06.863.4.856,1.129a6.611,6.611,0,0,1-1.326,3.258A5.885,5.885,0,0,1,296.311,305.187Z" transform="translate(0 -44.065)" fill="#20315c" stroke="#20315c" stroke-width="0.2"/>
  </g>
</svg>
