<svg xmlns="http://www.w3.org/2000/svg" width="32" height="30.805" viewBox="0 0 32 30.805">
  <g id="icon_location" data-name="icon location" transform="translate(-1018 -50.195)">
    <g id="Ellipse_91" data-name="Ellipse 91" transform="translate(1025 71)" fill="#fff" stroke="#292bb7" stroke-width="1" opacity="0.5">
      <ellipse cx="9" cy="3.5" rx="9" ry="3.5" stroke="none"/>
      <ellipse cx="9" cy="3.5" rx="8.5" ry="3" fill="none"/>
    </g>
    <g id="Ellipse_92" data-name="Ellipse 92" transform="translate(1018 68)" fill="#fff" stroke="#292bb7" stroke-width="1" opacity="0.5">
      <ellipse cx="16" cy="6.5" rx="16" ry="6.5" stroke="none"/>
      <ellipse cx="16" cy="6.5" rx="15.5" ry="6" fill="none"/>
    </g>
    <path id="Path_27" data-name="Path 27" d="M66.606,0a9.455,9.455,0,0,0-9.455,9.455c0,7.571,8.547,14.583,8.547,14.583a1.5,1.5,0,0,0,1.816,0s8.547-7.012,8.547-14.583A9.455,9.455,0,0,0,66.606,0Zm0,14.212a4.757,4.757,0,1,1,4.757-4.757A4.762,4.762,0,0,1,66.606,14.212Z" transform="translate(967.645 50.195)" fill="#292bb7"/>
  </g>
</svg>
